<svg width="48" height="48" viewBox="0 0 48 48" fill="none" xmlns="http://www.w3.org/2000/svg">
<path fill-rule="evenodd" clip-rule="evenodd" d="M24 5.71854C21.6827 8.05485 20.2512 11.2711 20.2512 14.8218C20.2512 18.3724 21.6827 21.5887 24 23.925C21.6578 26.2864 18.4106 27.7489 14.8218 27.7489C7.68237 27.7489 1.89473 21.9612 1.89473 14.8218C1.89473 7.68238 7.68237 1.89474 14.8218 1.89474C18.4106 1.89474 21.6578 3.35714 24 5.71854Z" fill="#7183BE"/>
<path fill-rule="evenodd" clip-rule="evenodd" d="M14.8218 3.78947C8.72881 3.78947 3.78947 8.72881 3.78947 14.8218C3.78947 20.9148 8.72881 25.8541 14.8218 25.8541C17.257 25.8541 19.5061 25.0667 21.3314 23.7301C19.4647 21.2509 18.3564 18.1646 18.3564 14.8218C18.3564 11.479 19.4647 8.39264 21.3314 5.91346C19.5061 4.57693 17.257 3.78947 14.8218 3.78947ZM0 14.8218C0 6.63594 6.63594 0 14.8218 0C18.9361 0 22.6618 1.67886 25.3452 4.38423L26.6687 5.71854L25.3452 7.05285C23.3655 9.04874 22.1459 11.791 22.1459 14.8218C22.1459 17.8526 23.3655 20.5948 25.3452 22.5907L26.6687 23.925L25.3452 25.2594C22.6618 27.9647 18.9361 29.6436 14.8218 29.6436C6.63594 29.6436 0 23.0076 0 14.8218Z" fill="black"/>
<path fill-rule="evenodd" clip-rule="evenodd" d="M42.2813 24C44.6427 21.6578 46.1051 18.4106 46.1051 14.8218C46.1051 7.68238 40.3174 1.89474 33.178 1.89474C26.0386 1.89474 20.251 7.68238 20.251 14.8218C20.251 18.4106 21.7134 21.6578 24.0748 24C26.4111 21.6827 29.6274 20.2512 33.178 20.2512C36.7287 20.2512 39.945 21.6827 42.2813 24Z" fill="#61AC6B"/>
<path fill-rule="evenodd" clip-rule="evenodd" d="M33.178 3.78947C27.085 3.78947 22.1457 8.72881 22.1457 14.8218C22.1457 17.257 22.9332 19.5061 24.2697 21.3314C26.7489 19.4647 29.8353 18.3564 33.178 18.3564C36.5208 18.3564 39.6072 19.4647 42.0864 21.3314C43.4229 19.5061 44.2103 17.257 44.2103 14.8218C44.2103 8.72881 39.271 3.78947 33.178 3.78947ZM18.3562 14.8218C18.3562 6.63594 24.9922 0 33.178 0C41.3639 0 47.9998 6.63594 47.9998 14.8218C47.9998 18.9361 46.321 22.6618 43.6156 25.3452L42.2813 26.6687L40.947 25.3452C38.9511 23.3655 36.2088 22.1459 33.178 22.1459C30.1472 22.1459 27.405 23.3655 25.4091 25.3452L24.0748 26.6687L22.7405 25.3452C20.0351 22.6618 18.3562 18.9361 18.3562 14.8218Z" fill="black"/>
<path fill-rule="evenodd" clip-rule="evenodd" d="M5.71853 24C3.35714 26.3422 1.89473 29.5894 1.89473 33.1782C1.89473 40.3176 7.68237 46.1053 14.8218 46.1053C21.9612 46.1053 27.7488 40.3176 27.7488 33.1782C27.7488 29.5894 26.2864 26.3422 23.925 24C21.5887 26.3174 18.3724 27.7489 14.8218 27.7489C11.2711 27.7489 8.05484 26.3174 5.71853 24Z" fill="#D5635B"/>
<path fill-rule="evenodd" clip-rule="evenodd" d="M23.925 21.3313L25.2594 22.6548C27.9647 25.3382 29.6436 29.0639 29.6436 33.1782C29.6436 41.3641 23.0076 48 14.8218 48C6.63594 48 0 41.3641 0 33.1782C0 29.0639 1.67886 25.3382 4.38423 22.6548L5.71854 21.3313L7.05285 22.6548C9.04874 24.6345 11.791 25.8541 14.8218 25.8541C17.8526 25.8541 20.5948 24.6345 22.5907 22.6548L23.925 21.3313ZM5.91346 26.6686C4.57693 28.4939 3.78947 30.743 3.78947 33.1782C3.78947 39.2712 8.72881 44.2105 14.8218 44.2105C20.9148 44.2105 25.8541 39.2712 25.8541 33.1782C25.8541 30.743 25.0666 28.4939 23.7301 26.6686C21.2509 28.5353 18.1646 29.6436 14.8218 29.6436C11.479 29.6436 8.39264 28.5353 5.91346 26.6686Z" fill="black"/>
<path fill-rule="evenodd" clip-rule="evenodd" d="M24 42.2812C26.3173 39.9449 27.7488 36.7286 27.7488 33.178C27.7488 29.6273 26.3173 26.411 24 24.0747C26.3422 21.7133 29.5894 20.2509 33.1782 20.2509C40.3176 20.2509 46.1053 26.0386 46.1053 33.178C46.1053 40.3174 40.3176 46.105 33.1782 46.105C29.5894 46.105 26.3422 44.6426 24 42.2812Z" fill="#A87AB5"/>
<path fill-rule="evenodd" clip-rule="evenodd" d="M26.6686 24.2696C28.5353 26.7488 29.6436 29.8352 29.6436 33.178C29.6436 36.5207 28.5353 39.6071 26.6686 42.0863C28.4939 43.4228 30.743 44.2103 33.1782 44.2103C39.2712 44.2103 44.2105 39.271 44.2105 33.178C44.2105 27.085 39.2712 22.1457 33.1782 22.1457C30.743 22.1457 28.4939 22.9331 26.6686 24.2696ZM22.6548 22.7404C25.3382 20.035 29.0639 18.3562 33.1782 18.3562C41.3641 18.3562 48 24.9921 48 33.178C48 41.3638 41.3641 47.9998 33.1782 47.9998C29.0639 47.9998 25.3382 46.3209 22.6548 43.6155L21.3313 42.2812L22.6548 40.9469C24.6345 38.951 25.8541 36.2088 25.8541 33.178C25.8541 30.1472 24.6345 27.4049 22.6548 25.409L21.3313 24.0747L22.6548 22.7404Z" fill="black"/>
</svg>
